#!OML:ASF F:\VICON\USERDATA\INSTALL\rory3\rory3.ASF
:FULLY-SPECIFIED
:DEGREES
197
root -1.05835 15.9858 0.602215 0.287511 2.57258 4.2476
lowerback 12.8506 -0.0707588 -7.66625
upperback -4.94664 -1.30803 1.50246
thorax -12.557 0.086069 6.32226
lowerneck -10.8376 -4.90699 -3.6313
upperneck 19.8713 -6.59778 2.27759
head 8.13676 -3.18876 0.678176
rclavicle -3.13086e-015 -6.36111e-015
rhumerus -46.6779 -14.14 -72.1319
rradius 16.589
rwrist 11.3783
rhand -8.44892 18.7845
rfingers 7.12502
rthumb 17.4768 -10.4499
lclavicle -3.13086e-015 -6.36111e-015
lhumerus -38.3925 8.39229 83.5831
lradius 20.8362
lwrist -2.33342
lhand -5.12786 19.7558
lfingers 7.12502
lthumb 20.6706 48.675
rfemur -27.237 16.4279 16.6888
rtibia 33.4218
rfoot -7.17618 -11.4179
rtoes 6.79915
lfemur 7.00781 0.641 -25.804
ltibia 39.9683
lfoot 4.29641 -4.24055
ltoes -8.12608
198
root -1.08271 16.0033 0.751606 0.210471 2.88121 3.89602
lowerback 12.789 -0.137507 -7.35275
upperback -4.95138 -1.32594 1.59059
thorax -12.5211 0.0549558 6.24376
lowerneck -10.4457 -4.96966 -3.68487
upperneck 19.6059 -6.70333 2.39222
head 7.98682 -3.238 0.726339
rclavicle 3.32964e-015 3.97569e-015
rhumerus -46.2073 -13.6566 -72.607
rradius 16.8528
rwrist 10.8967
rhand -8.46141 18.7681
rfingers 7.12502
rthumb 17.4648 -10.4673
lclavicle 3.32964e-015 3.97569e-015
lhumerus -38.7735 8.33865 83.5332
lradius 20.5248
lwrist -2.24652
lhand -4.9423 20.2776
lfingers 7.12502
lthumb 20.8489 49.1774
rfemur -26.2943 16.3967 17.4109
rtibia 33.2463
rfoot -7.67935 -11.5088
rtoes 6.58937
lfemur 5.27126 0.706888 -25.009
ltibia 43.023
lfoot 6.77856 -4.39754
ltoes -6.90639
199
root -1.10861 16.0171 0.892095 0.208551 3.04622 3.44674
lowerback 12.7295 -0.186078 -7.00663
upperback -4.96253 -1.30897 1.72497
thorax -12.4995 0.0411011 6.19079
lowerneck -9.95216 -5.00939 -3.74198
upperneck 19.1164 -6.7688 2.49281
head 7.7436 -3.27273 0.779795
rclavicle 1.34677e-014 -3.97569e-015
rhumerus -45.5785 -13.4032 -72.8844
rradius 16.9575
rwrist 10.7159
rhand -8.41042 18.9474
rfingers 7.12502
rthumb 17.5139 -10.2836
lclavicle 1.34677e-014 -3.97569e-015
lhumerus -39.1531 8.3543 83.4927
lradius 20.1092
lwrist -2.68868
lhand -5.06488 19.9336
lfingers 7.12502
lthumb 20.7311 48.8463
rfemur -25.4914 16.5192 18.2018
rtibia 32.9581
rfoot -8.16287 -11.6133
rtoes 6.63315
lfemur 3.37279 0.798556 -24.1376
ltibia 46.1116
lfoot 9.30605 -4.27571
ltoes -4.99009
200
root -1.13269 16.0291 1.0301 0.16221 3.15494 2.95828
lowerback 12.7786 -0.225508 -6.62185
upperback -4.90895 -1.2774 1.87241
thorax -12.4713 0.0297087 6.12893
lowerneck -10.4992 -5.014 -3.73169
upperneck 19.3548 -6.77284 2.52579
head 7.92185 -3.26237 0.771558
rclavicle 8.34896e-015 8.74653e-015
rhumerus -44.8017 -13.1609 -73.2181
rradius 17.1521
rwrist 10.5018
rhand -8.40322 19.0972
rfingers 7.12502
rthumb 17.5208 -10.1333
lclavicle 8.34896e-015 8.74653e-015
lhumerus -39.4278 8.15524 83.5759
lradius 19.8649
lwrist -2.95053
lhand -4.91416 19.5792
lfingers 7.12502
lthumb 20.8759 48.476
rfemur -24.5785 16.5184 19.0402
rtibia 32.5842
rfoot -8.64474 -11.3965
rtoes 7.81489
lfemur 1.4629 0.898952 -23.2759
ltibia 49.2116
lfoot 11.4769 -3.79152
ltoes -5.67356
201
root -1.15359 16.0438 1.17084 0.119505 3.29936 2.56262
lowerback 12.733 -0.242078 -6.26861
upperback -4.88264 -1.22299 1.95235
thorax -12.4218 0.0278861 6.00127
lowerneck -10.8731 -5.05128 -3.74274
upperneck 19.6184 -6.85313 2.68853
head 8.08621 -3.27899 0.805757
rclavicle 7.85199e-015 -7.95139e-016
rhumerus -44.1867 -12.8213 -73.6216
rradius 17.4453
rwrist 10.0359
rhand -8.60439 19.2744
rfingers 7.12502
rthumb 17.3272 -9.97324
lclavicle 7.85199e-015 -7.95139e-016
lhumerus -39.7536 7.77195 83.7008
lradius 19.7005
lwrist -2.90107
lhand -4.8114 19.7151
lfingers 7.12502
lthumb 20.9746 48.601
rfemur -23.6089 16.3234 19.782
rtibia 32.149
rfoot -9.08759 -10.9932
rtoes 9.25036
lfemur -0.484037 0.975662 -22.5624
ltibia 52.2698
lfoot 16.0349 -2.65387
ltoes 1.11358
202
root -1.17097 16.0568 1.30647 0.0932173 3.40693 2.21011
lowerback 12.6926 -0.268363 -6.03177
upperback -4.8885 -1.19671 2.09689
thorax -12.407 0.0282684 6.02032
lowerneck -10.6095 -5.05387 -3.85974
upperneck 19.3834 -6.86835 2.84902
head 7.97112 -3.2844 0.885073
rclavicle -1.69961e-014 7.15625e-015
rhumerus -43.4917 -12.2357 -74.0187
rradius 17.6934
rwrist 9.50623
rhand -8.58839 19.171
rfingers 7.12502
rthumb 17.3426 -10.0753
lclavicle -1.69961e-014 7.15625e-015
lhumerus -40.1633 7.84013 83.7658
lradius 19.5973
lwrist -3.18468
lhand -4.68493 20.1709
lfingers 7.12502
lthumb 21.0961 49.0433
rfemur -22.7203 15.9766 20.4611
rtibia 31.6901
rfoot -9.21982 -10.6131
rtoes 9.00192
lfemur -2.50117 1.01407 -21.9657
ltibia 55.2444
lfoot 20.061 -1.68561
ltoes 4.39259
